<?xml version="1.0" encoding="utf-8"?>
<!-- Generator: Adobe Illustrator 21.1.0, SVG Export Plug-In . SVG Version: 6.00 Build 0)  -->
<svg version="1.1" id="Layer_1" xmlns="http://www.w3.org/2000/svg" xmlns:xlink="http://www.w3.org/1999/xlink" x="0px" y="0px"
	 viewBox="0 0 1000 589" style="enable-background:new 0 0 1000 589;" xml:space="preserve">
<style type="text/css">
	.st0{fill:#E6E4DB;}
	.st1{fill:#CEC9BE;}
	.st2{font-family:'Open Sans';
		font-weight: 500;
		}
	.st3{font-size:24px;}
	.st4{font-family:'Open Sans';
		fill: #000000;
		font-weight: 400;
		}
	.st5{font-size:12px;}
</style>
<title>SteelWheels</title>
<g id="Mockup">
	<g id="SVG">
		<g id="Labels_and_Icons">
			<g id="Other_Icons">
				<g id="_Group_">
					<path id="_Path_" class="st0" d="M359.1,457.7l-9.6-9.6c-0.8-0.8-2-0.8-2.8,0s-0.8,2,0,2.8l6.2,6.2h-59.2c-1.1,0-2,0.9-2,2
						s0.9,2,2,2h59.2l-6.2,6.2c-0.8,0.8-0.8,2,0,2.8s2,0.8,2.8,0l9.6-9.6C359.9,459.7,359.9,458.5,359.1,457.7
						C359.1,457.7,359.1,457.7,359.1,457.7L359.1,457.7z"/>
					<path id="_Path_3" class="st0" d="M330.6,476.9l-9.6-9.6c-0.8-0.8-2-0.8-2.8,0s-0.8,2,0,2.8l6.2,6.2h-30.7c-1.1,0-2,0.9-2,2
						s0.9,2,2,2h30.7l-6.2,6.2c-0.8,0.8-0.8,2,0,2.8c0.8,0.8,2,0.8,2.8,0l0,0l9.6-9.6c0.8-0.7,1-1.9,0.3-2.7
						C330.9,476.9,330.8,476.8,330.6,476.9z"/>
				</g>
				<path id="_Path_4" class="st0" d="M420.7,289.8h-51l6.2-6.2c0.8-0.8,0.8-2,0-2.8s-2-0.8-2.8,0l-9.6,9.6c-0.8,0.8-0.8,2,0,2.8
					c0,0,0,0,0,0l9.6,9.6c0.8,0.8,2,0.8,2.8,0s0.8-2,0-2.8l-6.2-6.2h51c1.1,0,2-0.9,2-2S421.8,289.8,420.7,289.8L420.7,289.8z"/>
				<path id="_Path_5" class="st0" d="M260.7,90.6c-0.6,0-1.1-0.2-1.5-0.7c-7.1-7.9-18.2-10.6-28.1-7c-1,0.4-2.2-0.2-2.6-1.2
					c-0.4-1,0.2-2.2,1.2-2.6c10.3-3.7,21.8-1.5,30,5.7c5-12.9,19.5-19.3,32.3-14.3c0.1,0.1,0.3,0.1,0.4,0.2
					c3.7-16.1,19.8-26,35.9-22.3c8.6,2,15.9,7.7,19.9,15.6c0.5,1,0.2,2.2-0.8,2.7c-1,0.5-2.2,0.2-2.7-0.8c0,0,0-0.1-0.1-0.1
					c-6.4-12.8-22-17.9-34.7-11.5c-7.6,3.8-12.8,11.1-14,19.5c-0.2,1.1-1.2,1.9-2.3,1.7c-0.2,0-0.5-0.1-0.7-0.2
					c-10.2-5.5-22.9-1.7-28.5,8.5c-0.9,1.6-1.5,3.4-2,5.2C262.4,90,261.6,90.6,260.7,90.6L260.7,90.6z"/>
				<path id="_Path_6" class="st0" d="M82.4,74.1c-0.6,0-1.2-0.3-1.6-0.7c-5.5-6.7-14.5-9.5-22.8-6.8c-1.1,0.3-2.2-0.3-2.5-1.3
					c-0.3-1.1,0.3-2.2,1.3-2.5c8.7-2.7,18.2-0.5,24.8,5.7c4.9-10.4,17.2-15,27.8-10.4c4-13.4,18.1-21,31.4-17
					c1.1,0.3,2.1,0.7,3.2,1.2c1,0.5,1.5,1.6,1,2.6c-0.5,1-1.6,1.5-2.6,1c-10.7-4.8-23.3,0-28.1,10.7c-0.7,1.5-1.2,3.1-1.5,4.8
					c-0.2,1.1-1.3,1.8-2.3,1.6c-0.2,0-0.5-0.1-0.7-0.3c-8.2-4.9-18.8-2.3-23.7,5.9c-0.8,1.3-1.4,2.7-1.8,4.1
					C84.1,73.5,83.3,74.1,82.4,74.1z"/>
				<path id="_Path_7" class="st0" d="M699.7,219.1h-8.5c-1.1,0-2-0.9-2-2v-19.5h-11.5c-1.1,0-2-0.9-2-2v-20.5l-10.3-7.7l-10.3,7.7
					v25.7c0,1.1-0.9,2-2,2h-10.2c-1.1,0-2-0.9-2-2v-18.7h-16.5v14.3c0,1.1-0.9,2-2,2H614c-1.1,0-2-0.9-2-2v-28.2h-21.8v20.3
					c0,1.1-0.9,2-2,2h-10c-1.1,0-2-0.9-2-2v-11H571c-1.1,0-2-0.9-2-2s0.9-2,2-2h7.2c1.1,0,2,0.9,2,2v11h6v-20.3c0-1.1,0.9-2,2-2H614
					c1.1,0,2,0.9,2,2v28.2h4.3v-14.3c0-1.1,0.9-2,2-2h20.5c1.1,0,2,0.9,2,2v18.7h6.2v-24.7c0-0.6,0.3-1.2,0.8-1.6l12.3-9.2
					c0.7-0.5,1.7-0.5,2.4,0l12.3,9.2c0.5,0.4,0.8,1,0.8,1.6v19.5h11.5c1.1,0,2,0.9,2,2v19.5h6.5c1.1,0,2,0.9,2,2
					S700.8,219.1,699.7,219.1L699.7,219.1z"/>
				<path id="_Compound_Path_" class="st0" d="M137.5,139.9H84c-7.8,0-14-6.3-14-14c0-7.8,6.3-14,14-14h0.2c0-0.3,0-0.6,0-0.9
					c0.1-10.5,8.7-18.9,19.2-18.8c7.4,0.1,14.1,4.5,17.1,11.2c5.9-2.2,12.5,0.7,14.7,6.6c0.2,0.6,0.4,1.3,0.5,1.9
					c7.7-0.5,14.4,5.4,14.9,13.1C151.1,132.8,145.3,139.5,137.5,139.9L137.5,139.9z M84,115.8c-5.5,0-10,4.5-10,10
					c0,5.5,4.5,10,10,10h53.5c5.5-0.2,9.9-4.8,9.7-10.3c-0.2-5.5-4.8-9.9-10.3-9.7c-0.8,0-1.6,0.1-2.4,0.4c-1.1,0.3-2.2-0.3-2.5-1.3
					c-0.1-0.2-0.1-0.5-0.1-0.7v-0.2c0-4.1-3.2-7.4-7.3-7.5c-1.5,0-2.9,0.4-4.1,1.2c-0.9,0.6-2.2,0.3-2.8-0.6
					c-0.1-0.2-0.2-0.3-0.2-0.5c-2.8-7.8-11.4-11.9-19.2-9.1c-6.7,2.4-10.8,9.1-9.8,16.1c0.2,1.1-0.5,2.1-1.6,2.3
					c-0.3,0.1-0.6,0-0.9,0C85.3,115.9,84.7,115.8,84,115.8z"/>
				<g id="_Group_2">
					<path id="_Path_8" class="st0" d="M167.6,228.7h11.2c1.1,0,2-0.9,2-2v-14h8.4c1.1,0,2-0.9,2-2v-14.6l11.9-8.8l11.8,8.8v30.6
						c0,1.1,0.9,2,2,2H230c1.1,0,2-0.9,2-2v-20.2h9.2c1.1,0,2-0.9,2-2s-0.9-2-2-2H230c-1.1,0-2,0.9-2,2v20.2h-9.2v-29.6
						c0-0.6-0.3-1.2-0.8-1.6l-13.8-10.3c-0.7-0.5-1.7-0.5-2.4,0l-13.9,10.3c-0.5,0.4-0.8,1-0.8,1.6v13.6h-8.4c-1.1,0-2,0.9-2,2v14
						h-9.2c-1.1,0-2,0.9-2,2C165.6,227.8,166.5,228.7,167.6,228.7L167.6,228.7z"/>
				</g>
				<path id="_Compound_Path_2" class="st0" d="M295.6,304.5c-1,0-1.9-0.8-1.9-1.9l0,0c0.2-4.8-3.5-8.8-8.3-9c-0.2,0-0.4,0-0.7,0
					c-1,0-1.9-0.8-1.9-1.9s0.8-1.9,1.9-1.9c4.8,0.2,8.8-3.5,9-8.3c0-0.2,0-0.4,0-0.7c0-1,0.8-1.9,1.9-1.9s1.9,0.8,1.9,1.9
					c-0.2,4.8,3.5,8.8,8.3,9c0.2,0,0.4,0,0.7,0c1,0,1.9,0.8,1.9,1.9s-0.8,1.9-1.9,1.9c-4.8-0.2-8.8,3.5-9,8.3c0,0.2,0,0.4,0,0.7
					C297.5,303.7,296.7,304.5,295.6,304.5L295.6,304.5z M291.6,291.8c1.6,1,3,2.4,4,4c1-1.6,2.4-3,4-4c-1.6-1-3-2.4-4-4
					C294.6,289.5,293.3,290.8,291.6,291.8L291.6,291.8z"/>
				<path id="_Compound_Path_3" class="st0" d="M683.7,282.1c-1,0-1.8-0.8-1.8-1.9c0.2-4.8-3.5-8.8-8.3-9c-0.2,0-0.4,0-0.7,0
					c-1,0-1.8-0.8-1.8-1.9s0.8-1.9,1.8-1.9c4.8,0.2,8.8-3.5,9-8.3c0-0.2,0-0.4,0-0.7c0-1,0.8-1.9,1.8-1.9c1,0,1.9,0.8,1.9,1.9
					c-0.2,4.8,3.5,8.8,8.3,9c0.2,0,0.4,0,0.7,0c1,0,1.9,0.8,1.9,1.9s-0.8,1.9-1.9,1.9c-4.8-0.2-8.8,3.5-9,8.3c0,0.2,0,0.4,0,0.7
					C685.5,281.2,684.7,282.1,683.7,282.1C683.7,282.1,683.7,282.1,683.7,282.1z M679.7,269.4c1.6,1,3,2.4,4,4c1-1.6,2.4-3,4-4
					c-1.6-1-3-2.4-4-4C682.6,267,681.3,268.4,679.7,269.4L679.7,269.4z"/>
				<path id="_Compound_Path_4" class="st0" d="M69.9,377.8c-1,0-1.8-0.8-1.8-1.9l0,0c0.2-4.8-3.5-8.8-8.3-9c-0.2,0-0.4,0-0.7,0
					c-1,0-1.9-0.8-1.9-1.9s0.8-1.9,1.9-1.9c4.8,0.2,8.8-3.5,9-8.3c0-0.2,0-0.4,0-0.7c0-1,0.8-1.9,1.8-1.9c1,0,1.9,0.8,1.9,1.8
					c0,0,0,0,0,0c-0.2,4.8,3.5,8.8,8.3,9c0.2,0,0.4,0,0.7,0c1,0,1.9,0.8,1.9,1.9s-0.8,1.9-1.9,1.9l0,0c-4.8-0.2-8.8,3.5-9,8.3
					c0,0.2,0,0.4,0,0.7C71.8,377,71,377.8,69.9,377.8C69.9,377.8,69.9,377.8,69.9,377.8z M65.9,365.2c1.6,1,3,2.4,4,4
					c1-1.6,2.4-3,4-4c-1.6-1-3-2.4-4-4C68.9,362.8,67.6,364.2,65.9,365.2L65.9,365.2z"/>
				<path id="_Compound_Path_4_1_" class="st0" d="M194.4,379.8c-1,0-1.9-0.8-1.9-1.9l0,0c0.2-4.8-3.5-8.8-8.3-9c-0.2,0-0.4,0-0.7,0
					c-1,0-1.9-0.8-1.9-1.9s0.8-1.9,1.9-1.9c4.8,0.2,8.8-3.5,9-8.3c0-0.2,0-0.4,0-0.7c0-1,0.8-1.9,1.8-1.9c1,0,1.9,0.8,1.9,1.8
					c0,0,0,0,0,0c-0.2,4.8,3.5,8.8,8.3,9c0.2,0,0.4,0,0.7,0c1,0,1.9,0.8,1.9,1.9s-0.8,1.9-1.9,1.9l0,0c-4.8-0.2-8.8,3.5-9,8.3
					c0,0.2,0,0.4,0,0.7C196.2,379,195.4,379.8,194.4,379.8C194.4,379.8,194.4,379.8,194.4,379.8z M190.4,367.2c1.6,1,3,2.4,4,4
					c1-1.6,2.4-3,4-4c-1.6-1-3-2.4-4-4C193.4,364.8,192,366.2,190.4,367.2L190.4,367.2z"/>
				<path id="_Compound_Path_5" class="st0" d="M169.8,452.6c-1,0-1.9-0.8-1.9-1.9l0,0c0.2-4.8-3.5-8.8-8.3-9c-0.2,0-0.4,0-0.7,0
					c-1,0-1.9-0.8-1.9-1.9s0.8-1.9,1.9-1.9c4.8,0.2,8.8-3.5,9-8.3c0-0.2,0-0.4,0-0.7c0-1,0.8-1.9,1.8-1.9c1,0,1.9,0.8,1.9,1.8
					c0,0,0,0,0,0c-0.2,4.8,3.5,8.8,8.3,9c0.2,0,0.4,0,0.7,0c1,0,1.9,0.8,1.9,1.9s-0.8,1.9-1.9,1.9c-4.8-0.2-8.8,3.5-9,8.3
					c0,0.2,0,0.4,0,0.7C171.7,451.7,170.8,452.6,169.8,452.6z M165.8,439.9c1.6,1,3,2.4,4,4c1-1.6,2.4-3,4-4c-1.6-1-3-2.4-4-4
					C168.8,437.5,167.4,438.9,165.8,439.9L165.8,439.9z"/>
				<path id="_Compound_Path_6" class="st0" d="M347.5,536.2c-1,0-1.9-0.8-1.9-1.8c0.2-4.8-3.5-8.8-8.3-9c-0.2,0-0.4,0-0.7,0
					c-1,0-1.9-0.8-1.9-1.8c0-1,0.8-1.9,1.9-1.9c4.8,0.2,8.8-3.5,9-8.3c0-0.2,0-0.4,0-0.7c0-1,0.8-1.9,1.9-1.9s1.9,0.8,1.9,1.9
					c-0.2,4.8,3.5,8.8,8.3,9c0.2,0,0.4,0,0.7,0c1,0,1.9,0.8,1.9,1.9c0,1-0.8,1.8-1.9,1.8l0,0c-4.8-0.2-8.8,3.5-9,8.3
					c0,0.2,0,0.4,0,0.7C349.4,535.4,348.6,536.2,347.5,536.2z M343.5,523.6c1.6,1,3,2.4,4,4c1-1.6,2.4-3,4-4c-1.6-1-3-2.4-4-4
					C346.5,521.2,345.2,522.6,343.5,523.6L343.5,523.6z"/>
				<path id="_Compound_Path_7" class="st0" d="M683.7,140.5c-1,0-1.8-0.8-1.8-1.9c0.2-4.8-3.5-8.8-8.3-9c-0.2,0-0.4,0-0.7,0
					c-1,0-1.8-0.8-1.8-1.9c0-1,0.8-1.8,1.8-1.8c4.8,0.2,8.8-3.5,9-8.3c0-0.2,0-0.4,0-0.7c0-1,0.8-1.9,1.8-1.9c1,0,1.9,0.8,1.9,1.9
					c-0.2,4.8,3.5,8.8,8.3,9c0.2,0,0.4,0,0.7,0c1,0,1.8,0.8,1.8,1.9c0,1-0.8,1.8-1.8,1.8c-4.8-0.2-8.8,3.5-9,8.3c0,0.2,0,0.4,0,0.7
					C685.5,139.7,684.7,140.5,683.7,140.5C683.7,140.5,683.7,140.5,683.7,140.5z M679.7,127.8c1.6,1,3,2.4,4,4c1-1.6,2.4-3,4-4
					c-1.6-1-3-2.4-4-4C682.6,125.5,681.3,126.8,679.7,127.8L679.7,127.8z"/>
				<path id="_Compound_Path_8" class="st0" d="M330,116c-1,0-1.9-0.8-1.9-1.8v0c0.2-4.8-3.5-8.8-8.3-9c-0.2,0-0.4,0-0.7,0
					c-1,0-1.8-0.8-1.8-1.9c0-1,0.8-1.8,1.8-1.8c4.8,0.2,8.8-3.5,9-8.3c0-0.2,0-0.4,0-0.7c0-1,0.8-1.9,1.9-1.9s1.9,0.8,1.9,1.9
					c-0.2,4.8,3.5,8.8,8.3,9c0.2,0,0.4,0,0.7,0c1,0,1.8,0.8,1.8,1.9c0,1-0.8,1.8-1.8,1.8c-4.8-0.2-8.8,3.5-9,8.3c0,0.2,0,0.4,0,0.7
					C331.9,115.1,331,116,330,116L330,116z M326,103.3c1.6,1,3,2.4,4,4c1-1.6,2.4-3,4-4c-1.6-1-3-2.4-4-4
					C329,100.9,327.6,102.3,326,103.3z"/>
				<path id="_Compound_Path_9" class="st0" d="M518,356.6c-2.2,0-4.1,1.3-4.9,3.3h-28.7c-1.1,0-2,0.9-2,2v8.5h-18.2
					c-1.1-2.7-4.2-4-6.9-2.9c-2.7,1.1-4,4.2-2.9,6.9c1.1,2.7,4.2,4,6.9,2.9c1.3-0.5,2.4-1.6,2.9-2.9h20.2c1.1,0,2-0.9,2-2v-8.5h26.8
					c1.1,2.7,4.2,4,6.9,2.9s4-4.2,2.9-6.9C522.1,357.9,520.2,356.6,518,356.6L518,356.6z M459.2,374c-0.9,0-1.6-0.7-1.6-1.6
					s0.7-1.6,1.6-1.6s1.6,0.7,1.6,1.6v0C460.9,373.2,460.1,374,459.2,374L459.2,374z M518,363.5c-0.9,0-1.6-0.7-1.6-1.6
					c0-0.9,0.7-1.6,1.6-1.6c0.9,0,1.6,0.7,1.6,1.6v0C519.6,362.8,518.9,363.5,518,363.5z"/>
				<path class="st0" d="M573.3,517.5c-1.1,0-2.1,0.4-3,1l0,0l-24-16c0.6-2.9-1.2-5.7-4.1-6.3s-5.7,1.2-6.3,4.1
					c-0.3,1.5,0,3,0.9,4.2l-11.5,18.2c-1.1-0.2-2.3,0-3.3,0.5l-8.7-7.7c0.2-0.6,0.3-1.1,0.3-1.7c0-2.9-2.4-5.3-5.3-5.3
					c-2.9,0-5.3,2.4-5.3,5.3c0,0,0,0,0,0c0,0.1,0,0.2,0,0.2l-19,8.8c-2.1-2-5.5-1.9-7.5,0.3c-2,2.1-1.9,5.5,0.3,7.5
					c2.1,2,5.5,1.9,7.5-0.3c0.9-1,1.4-2.3,1.4-3.6c0-0.1,0-0.2,0-0.2l19-8.8c1.6,1.5,4,1.9,6,0.9l8.7,7.7c-0.2,0.6-0.3,1.1-0.3,1.7
					c0,2.9,2.4,5.3,5.3,5.3c2.9,0,5.3-2.4,5.3-5.3c0-1.1-0.3-2.2-1-3.1l11.5-18.2c1.4,0.3,2.8,0,3.9-0.8l24,16l0,0
					c-0.1,0.4-0.1,0.7-0.1,1.1c0,3,2.4,5.4,5.3,5.4s5.4-2.4,5.4-5.3S576.4,517.6,573.3,517.5L573.3,517.5L573.3,517.5z M480.3,528.2
					c-0.9,0-1.6-0.7-1.6-1.6s0.7-1.6,1.6-1.6c0.9,0,1.6,0.7,1.6,1.6l0,0C482,527.5,481.2,528.2,480.3,528.2L480.3,528.2z
					 M508.3,515.3c-0.9,0-1.6-0.7-1.6-1.6s0.7-1.6,1.6-1.6c0.9,0,1.6,0.7,1.6,1.6l0,0C509.9,514.6,509.2,515.3,508.3,515.3
					L508.3,515.3z M524.3,529.5c-0.9,0-1.6-0.7-1.6-1.6c0-0.9,0.7-1.6,1.6-1.6c0.9,0,1.6,0.7,1.6,1.6l0,0
					C525.9,528.7,525.2,529.5,524.3,529.5L524.3,529.5z M541,503c-0.9,0-1.6-0.7-1.6-1.6c0-0.9,0.7-1.6,1.6-1.6
					c0.9,0,1.6,0.7,1.6,1.6l0,0C542.6,502.3,541.9,503,541,503L541,503z M573.3,524.5c-0.9,0-1.6-0.7-1.6-1.6c0-0.9,0.7-1.6,1.6-1.6
					c0.9,0,1.6,0.7,1.6,1.6l0,0C574.9,523.8,574.2,524.5,573.3,524.5z"/>
				<g id="_Group_3">
					<g id="_Group_4">
						<path id="_Compound_Path_10" class="st0" d="M150.2,408.9c-3.5,0-6.5-2.7-6.8-6.2l-1.1-12.1c-0.4-4.4,2.9-8.2,7.2-8.6
							c4.4-0.4,8.2,2.9,8.6,7.2c0,0.5,0,0.9,0,1.4l-1.1,12.1C156.7,406.2,153.7,408.9,150.2,408.9z M150.2,385.9
							c-2.2,0-3.9,1.8-3.9,3.9c0,0.1,0,0.3,0,0.4l1.1,12.1c0.2,1.5,1.5,2.7,3.1,2.5c1.3-0.1,2.4-1.2,2.5-2.5l1.1-12.1
							c0.2-2.2-1.4-4.1-3.6-4.3C150.4,385.9,150.3,385.9,150.2,385.9L150.2,385.9z"/>
						<path id="_Compound_Path_11" class="st0" d="M130.5,421.6c-3.5,0-6.5-2.7-6.8-6.2l-1.1-12.1c-0.4-4.4,2.9-8.2,7.2-8.6
							c4.4-0.4,8.2,2.9,8.6,7.2c0,0.5,0,0.9,0,1.4l-1.1,12.1C137,418.9,134.1,421.6,130.5,421.6z M130.5,398.6
							c-2.2,0-3.9,1.8-3.9,3.9c0,0.1,0,0.3,0,0.4l1.1,12.1c0.2,1.5,1.5,2.7,3.1,2.5c1.3-0.1,2.4-1.2,2.5-2.5l1.1-12.1
							c0.2-2.2-1.4-4.1-3.6-4.3C130.8,398.6,130.7,398.6,130.5,398.6L130.5,398.6z"/>
						<path id="_Compound_Path_12" class="st0" d="M109.9,413.9c-3.5,0-6.5-2.7-6.8-6.2l-1.1-12.1c-0.4-4.4,2.9-8.2,7.2-8.6
							c4.4-0.4,8.2,2.9,8.6,7.2c0,0.5,0,0.9,0,1.4l-1.1,12.1C116.4,411.2,113.4,413.9,109.9,413.9z M109.9,390.9
							c-2.2,0-3.9,1.8-3.9,3.9c0,0.1,0,0.3,0,0.4l1.1,12.1c0.2,1.5,1.5,2.7,3.1,2.5c1.3-0.1,2.4-1.2,2.5-2.5l1.1-12.1
							c0.2-2.2-1.4-4.1-3.6-4.3C110.2,390.9,110,390.9,109.9,390.9L109.9,390.9z"/>
					</g>
					<g id="_Group_5">
						<path id="_Compound_Path_13" class="st0" d="M150.2,380.2c-3.1,0-5.7-2.5-5.7-5.7s2.5-5.7,5.7-5.7s5.7,2.5,5.7,5.7
							C155.9,377.7,153.3,380.2,150.2,380.2z M150.2,372.5c-1.1,0-2,0.9-2,2s0.9,2,2,2s2-0.9,2-2
							C152.2,373.4,151.3,372.5,150.2,372.5C150.2,372.5,150.2,372.5,150.2,372.5L150.2,372.5z"/>
						<path id="_Compound_Path_14" class="st0" d="M130.5,393c-3.1,0-5.7-2.5-5.7-5.7c0-3.1,2.5-5.7,5.7-5.7c3.1,0,5.7,2.5,5.7,5.7
							C136.2,390.4,133.7,393,130.5,393z M130.5,385.3c-1.1,0-2,0.9-2,2s0.9,2,2,2c1.1,0,2-0.9,2-2S131.6,385.3,130.5,385.3z"/>
						<path id="_Compound_Path_15" class="st0" d="M109.9,385.3c-3.1,0-5.7-2.5-5.7-5.7c0-3.1,2.5-5.7,5.7-5.7
							c3.1,0,5.7,2.5,5.7,5.7C115.6,382.7,113.1,385.3,109.9,385.3z M109.9,377.6c-1.1,0-2,0.9-2,2s0.9,2,2,2s2-0.9,2-2
							S111,377.6,109.9,377.6z"/>
					</g>
				</g>
				<path id="_Path_9" class="st0" d="M486.4,183.9c-0.5-1-1.8-1.3-2.7-0.7c-0.3,0.2-0.6,0.5-0.8,0.8l-7.5,14.6l-7.6-14.6
					c-0.6-1-1.8-1.4-2.8-0.8s-1.4,1.8-0.8,2.8l6.9,12.4h-5.5c-0.8,0-1.5,0.7-1.5,1.5s0.7,1.5,1.5,1.5l0,0h7l0.6,1v2.8h-7.7
					c-0.8,0-1.5,0.7-1.5,1.5s0.7,1.5,1.5,1.5h7.7v5.6c0,1.1,0.9,2,2,2s2-0.9,2-2v-5.6h7.6c0.8,0,1.5-0.7,1.5-1.5s-0.7-1.5-1.5-1.5
					h-7.6v-2.8l0.6-1h7c0.8,0,1.5-0.7,1.5-1.5s-0.7-1.5-1.5-1.5h-5.3l6.9-12.5C486.7,185.3,486.8,184.5,486.4,183.9z"/>
				<path id="_Path_10" class="st0" d="M433.9,517.1c-0.5-1-1.8-1.3-2.7-0.7c-0.3,0.2-0.6,0.5-0.8,0.8l-7.5,14.6l-7.6-14.5
					c-0.6-1-1.8-1.4-2.8-0.8s-1.4,1.8-0.8,2.8l6.9,12.4H413c-0.8,0-1.5,0.7-1.5,1.5s0.7,1.5,1.5,1.5h7l0.6,1v2.8H413
					c-0.8,0-1.5,0.7-1.5,1.5s0.7,1.5,1.5,1.5h7.7v5.6c0,1.1,0.9,2,2,2s2-0.9,2-2v-5.6h7.6c0.8,0,1.5-0.7,1.5-1.5s-0.7-1.5-1.5-1.5
					h-7.6v-2.8l0.6-1h7c0.8,0,1.5-0.7,1.5-1.5s-0.7-1.5-1.5-1.5H427l6.9-12.5C434.3,518.5,434.2,517.7,433.9,517.1z"/>
				<path id="_Compound_Path_16" class="st0" d="M112.3,199.3c-6.6,0-11.9-5.4-11.9-11.9c0-1.7,0.4-3.4,1.1-4.9
					c1.8-4.1,8.5-18,8.8-18.6l0.3-0.5c0.5-1,1.7-1.4,2.7-0.9c0.4,0.2,0.7,0.5,0.9,0.9l0.2,0.5c0.3,0.6,7,14.5,8.8,18.5l0,0
					c0.7,1.6,1.1,3.2,1.1,4.9C124.2,194,118.9,199.3,112.3,199.3z M112.3,168.8c-2.2,4.5-6,12.4-7.2,15.2c-0.5,1.1-0.7,2.2-0.7,3.3
					c0,4.4,3.6,7.9,8,7.9c4.4,0,7.9-3.6,7.9-7.9c0-1.2-0.3-2.3-0.7-3.4C118.2,181.2,114.4,173.3,112.3,168.8L112.3,168.8z"/>
				<path class="st0" d="M211,121.1h-12.8l6.6-25.5c0.3-1.1-0.3-2.2-1.4-2.4c-0.8-0.2-1.7,0.1-2.2,0.8l-25.1,37.5
					c-0.6,0.9-0.4,2.2,0.6,2.8c0.3,0.2,0.7,0.3,1.1,0.3h12.8L184,160c-0.3,1.1,0.3,2.2,1.4,2.4c0.8,0.2,1.7-0.1,2.2-0.8l25.1-37.4
					c0.6-0.9,0.4-2.2-0.6-2.8C211.8,121.3,211.4,121.1,211,121.1L211,121.1z M190.8,149.6l4.3-16.6c0.3-1.1-0.4-2.2-1.4-2.4
					c-0.2,0-0.3-0.1-0.5-0.1h-11.6L198,106l-4.3,16.6c-0.3,1.1,0.4,2.2,1.4,2.4c0.2,0,0.3,0.1,0.5,0.1h11.6L190.8,149.6z"/>
				<path id="_Compound_Path_17" class="st0" d="M520.6,162.2c-1,0-1.8-0.8-1.8-1.9c0.2-4.8-3.5-8.8-8.3-9c-0.2,0-0.4,0-0.7,0
					c-1,0-1.8-0.8-1.8-1.9c0-1,0.8-1.8,1.8-1.8c4.8,0.2,8.8-3.5,9-8.3c0-0.2,0-0.4,0-0.7c0-1,0.8-1.9,1.9-1.9c1,0,1.8,0.8,1.8,1.9
					c-0.2,4.8,3.5,8.8,8.3,9c0.2,0,0.4,0,0.7,0c1,0,1.8,0.8,1.8,1.9c0,1-0.8,1.8-1.8,1.8c-4.8-0.2-8.8,3.5-9,8.3c0,0.2,0,0.4,0,0.7
					C522.4,161.4,521.6,162.2,520.6,162.2C520.6,162.2,520.6,162.2,520.6,162.2z M516.6,149.6c1.6,1,3,2.4,4,4c1-1.6,2.4-3,4-4
					c-1.6-1-3-2.4-4-4C519.6,147.2,518.2,148.6,516.6,149.6L516.6,149.6z"/>
				<path id="_Compound_Path_18" class="st0" d="M401.2,452.6c-1,0-1.9-0.8-1.9-1.9l0,0c0.2-4.8-3.5-8.8-8.3-9c-0.2,0-0.4,0-0.7,0
					c-1,0-1.9-0.8-1.9-1.9s0.8-1.9,1.9-1.9c4.8,0.2,8.8-3.5,9-8.3c0-0.2,0-0.4,0-0.7c0-1,0.8-1.9,1.9-1.9s1.9,0.8,1.9,1.9
					c-0.2,4.8,3.5,8.8,8.3,9c0.2,0,0.4,0,0.7,0c1,0,1.9,0.8,1.9,1.9s-0.8,1.9-1.9,1.9c-4.8-0.2-8.8,3.5-9,8.3c0,0.2,0,0.4,0,0.7
					C403.1,451.7,402.3,452.6,401.2,452.6L401.2,452.6z M397.2,439.9c1.6,1,3,2.4,4,4c1-1.6,2.4-3,4-4c-1.6-1-3-2.4-4-4
					C400.2,437.5,398.9,438.9,397.2,439.9L397.2,439.9z"/>
				<path id="_Compound_Path_19" class="st0" d="M570.3,389.1c-1,0-1.8-0.8-1.8-1.9c0.2-4.8-3.5-8.8-8.3-9c-0.2,0-0.4,0-0.7,0
					c-1,0-1.8-0.8-1.8-1.9s0.8-1.9,1.8-1.9c4.8,0.2,8.8-3.5,9-8.3c0-0.2,0-0.4,0-0.7c0-1,0.8-1.9,1.8-1.9c1,0,1.9,0.8,1.9,1.9
					c-0.2,4.8,3.5,8.8,8.3,9c0.2,0,0.4,0,0.7,0c1,0,1.9,0.8,1.9,1.9s-0.8,1.9-1.9,1.9c-4.8-0.2-8.8,3.5-9,8.3c0,0.2,0,0.4,0,0.7
					C572.1,388.3,571.3,389.1,570.3,389.1C570.3,389.1,570.3,389.1,570.3,389.1z M566.3,376.5c1.6,1,3,2.4,4,4c1-1.6,2.4-3,4-4
					c-1.6-1-3-2.4-4-4C569.3,374.1,567.9,375.5,566.3,376.5L566.3,376.5z"/>
				<path id="_Compound_Path_20" class="st0" d="M662.1,93.1h-53.5c-7.8,0-14-6.3-14-14s6.3-14,14-14h0.2c0-0.3,0-0.6,0-0.9
					c0.2-10.5,8.8-18.9,19.3-18.7c7.3,0.1,13.9,4.4,16.9,11.1c5.9-2.2,12.5,0.7,14.7,6.6c0.2,0.6,0.4,1.3,0.5,1.9
					c7.7-0.5,14.4,5.4,14.9,13.1S669.8,92.7,662.1,93.1L662.1,93.1L662.1,93.1z M608.6,69c-5.5,0-10,4.5-10,10s4.5,10,10,10h53.5
					c5.5-0.2,9.9-4.8,9.7-10.3c-0.2-5.5-4.8-9.9-10.3-9.7c-0.8,0-1.6,0.1-2.4,0.4c-1.1,0.3-2.2-0.3-2.5-1.3
					c-0.1-0.2-0.1-0.5-0.1-0.7v-0.2c0-4.1-3.3-7.4-7.4-7.5c-1.5,0-2.9,0.4-4.1,1.2c-0.9,0.6-2.2,0.3-2.8-0.6
					c-0.1-0.2-0.2-0.3-0.2-0.5c-2.8-7.8-11.4-11.9-19.2-9.1c-6.7,2.4-10.8,9.1-9.8,16.1c0.2,1.1-0.5,2.1-1.6,2.3c-0.3,0-0.5,0-0.8,0
					C609.9,69.1,609.3,69.1,608.6,69z"/>
			</g>
			<g id="Icons">
				<g id="ShipsFill" class="st1" >
					<path  d="M204.5,494.5h-91.9c-1,0-1.9-0.9-1.9-1.9c0-1,0.8-1.9,1.9-1.9h91.9c1,0,1.9,0.9,1.9,1.9
						C206.4,493.6,205.6,494.5,204.5,494.5z"/>
					<path d="M186.2,502.6c-1,0-1.9-0.9-1.9-1.9l0,0v-8.2c0-1,0.9-1.9,1.9-1.9c1,0,1.9,0.9,1.9,1.9v8.1
						C188.1,501.7,187.3,502.5,186.2,502.6C186.2,502.6,186.2,502.6,186.2,502.6z"/>
					<path d="M167.9,502.6c-1,0-1.9-0.9-1.9-1.9l0,0v-8.2c0-1,0.9-1.9,1.9-1.9c1,0,1.9,0.9,1.9,1.9v8.1
						C169.8,501.7,169,502.5,167.9,502.6C167.9,502.6,167.9,502.6,167.9,502.6z"/>
					<path d="M149.6,502.6c-1,0-1.9-0.9-1.9-1.9l0,0v-8.2c0-1,0.9-1.9,1.9-1.9c1,0,1.9,0.9,1.9,1.9v8.1
						C151.5,501.7,150.7,502.5,149.6,502.6C149.6,502.6,149.6,502.6,149.6,502.6z"/>
					<path d="M131.3,502.6c-1,0-1.9-0.9-1.9-1.9l0,0v-8.2c0-1,0.9-1.9,1.9-1.9c1,0,1.9,0.9,1.9,1.9v8.1
						C133.2,501.7,132.4,502.5,131.3,502.6C131.3,502.6,131.3,502.6,131.3,502.6z"/>
					<path d="M293,537.1c-3.3,0.1-6.6-1-9.3-3c-4.3-3.1-10.2-3.1-14.5,0c-5.6,3.9-13,3.9-18.6,0
						c-4.3-3.1-10.2-3.1-14.5,0c-5.6,3.9-13,3.9-18.6,0c-4.3-3.1-10.2-3.1-14.5,0c-5.6,3.9-13,3.9-18.6,0c-4.3-3.1-10.2-3.1-14.5,0
						c-5.6,3.9-13,3.9-18.6,0c-4.3-3.1-10.2-3.1-14.5,0c-5.6,3.9-13,3.9-18.6,0c-4.3-3.1-10.2-3.1-14.5,0c-5.6,3.9-13,3.9-18.6,0
						c-0.9-0.6-1.1-1.7-0.6-2.6s1.7-1.1,2.6-0.6c4.3,3.1,10.2,3.1,14.5,0c5.6-3.9,13-3.9,18.6,0c4.3,3.1,10.2,3.1,14.5,0
						c5.6-3.9,13-3.9,18.6,0c4.3,3.1,10.2,3.1,14.5,0c5.6-3.9,13-3.9,18.6,0c4.3,3.1,10.2,3.1,14.5,0c5.6-3.9,13-3.9,18.6,0
						c4.3,3.1,10.2,3.1,14.5,0c5.6-3.9,13-3.9,18.6,0c4.3,3.1,10.2,3.1,14.5,0c5.6-3.9,13-3.9,18.6,0c4.3,3.1,10.2,3.1,14.5,0
						c0.9-0.4,2.1,0,2.5,0.9c0.4,0.8,0.2,1.7-0.5,2.3C299.6,536.1,296.3,537.2,293,537.1z"/>
					<g id="_Group_6">
						<path  d="M292.4,527.1c-3.3,0.1-6.6-1-9.3-3c-4.3-3.1-10.2-3.1-14.5,0c-5.6,3.9-13,3.9-18.6,0
							c-1.3-0.9-2.8-1.6-4.3-2l0,0c-1-0.2-1.9-0.3-2.9-0.3c-2.6-0.1-5.2,0.8-7.3,2.3c-5.6,3.9-13,3.9-18.6,0
							c-4.3-3.1-10.2-3.1-14.5,0c-5.6,3.9-13,3.9-18.6,0c-4.3-3.1-10.2-3.1-14.5,0c-5.6,3.9-13,3.9-18.6,0c-4.3-3.1-10.2-3.1-14.5,0
							c-5.6,3.9-13,3.9-18.6,0c-4.3-3.1-10.2-3.1-14.5,0c-2.7,2-6,3-9.3,3c-3.2,0.1-6.4-0.9-9-2.7c-0.8-0.5-1.1-1.4-0.8-2.3l3.2-8.3
							l-12.4-20.4c-0.5-0.9-0.3-2.1,0.6-2.6c0.3-0.2,0.6-0.3,1-0.3h36.9c0.7,0,1.3,0.3,1.6,0.9l4.4,7.2h83.6v-17.6
							c0-1,0.9-1.9,1.9-1.9h2.7V467c0-1,0.9-1.9,1.9-1.9h19.1c1,0,1.9,0.9,1.9,1.9v12.2h6c1,0,1.9,0.9,1.9,1.9v9.5h8.6
							c1,0,1.9,0.9,1.9,1.9l0,0v2.5h6.4c1,0,1.9,0.9,1.9,1.9c0,0.2,0,0.5-0.1,0.7l-8.2,21.4c1.2,0.5,2.4,1.2,3.4,1.9
							c4.3,3.1,10.2,3.1,14.5,0c5.6-3.9,13-3.9,18.6,0c4.3,3.1,10.2,3.1,14.5,0c0.9-0.6,2.1-0.3,2.6,0.6s0.3,2.1-0.6,2.6
							C299,526.1,295.7,527.1,292.4,527.1z M209.5,518c3.3-0.1,6.6,1,9.3,3c4.3,3.1,10.2,3.1,14.5,0c2.7-2,6-3,9.3-3
							c0.7,0,1.4,0,2.2,0.1l7.4-19.2h-5.6c-1,0-1.9-0.9-1.9-1.9l0,0v-2.5h-8.6c-1,0-1.9-0.9-1.9-1.9l0,0v-9.5h-6
							c-1,0-1.9-0.9-1.9-1.9V469h-15.3v12.2c0,1-0.9,1.9-1.9,1.9h-2.7v17.6c0,1-0.9,1.9-1.9,1.9h0H118c-0.7,0-1.3-0.3-1.6-0.9
							l-4.4-7.2H79.6l11.1,18.3c0.3,0.5,0.4,1.1,0.2,1.7l-2.9,7.6c1.7,0.9,3.6,1.4,5.6,1.3c2.6,0.1,5.2-0.8,7.3-2.3
							c5.6-3.9,13-3.9,18.6,0c4.3,3.1,10.2,3.1,14.5,0c5.6-3.9,13-3.9,18.6,0c4.3,3.1,10.2,3.1,14.5,0c5.6-3.9,13-3.9,18.6,0
							c4.3,3.1,10.2,3.1,14.5,0C202.9,519,206.2,517.9,209.5,518L209.5,518z"/>
					</g>
				</g>
				<g id="TrainsFill" class="st1" >
					<path  d="M558.4,448.3l-59.5,8.1c5.4-7.1,13-15,20-18.8c4.8-2.8,10.4-4.1,15.9-3.6c3.7,0.2,17.8,1.3,23.6,1.7
						c1.1,0.1,2.1-0.7,2.2-1.9c0.1-1.1-0.7-2.1-1.9-2.1c-5.9-0.4-19.9-1.5-23.7-1.7c-6.3-0.5-12.6,0.9-18.1,4.1
						c-9.5,5.2-19,16.1-24.1,23.8c-0.6,0.9-0.4,2.2,0.6,2.8c0.3,0.2,0.7,0.3,1.1,0.3h0.3l64-8.7c1.1-0.1,1.9-1.2,1.7-2.3
						C560.5,448.9,559.4,448.1,558.4,448.3L558.4,448.3z"/>
					<path  d="M639.6,437.4c-41.8-6.7-113.7-18.1-124.4-19.8c-17.8-2.8-42.1,1.6-56.9,22.3c-1.7,2.4-3.3,4.8-4.7,7.3v0.1
						c-5.3,9.2-6.3,15.6-6.4,15.9c-0.1,0.6,0.1,1.2,0.5,1.6c2.7,3.1,6.1,5.5,9.8,7.3l-43.4,8.3c-1.1,0.1-1.9,1.1-1.8,2.2
						s1.1,1.9,2.2,1.8c0.1,0,0.3,0,0.4,0l49.6-9.5c7.3,2.1,15,3.2,22.6,3.2l-27.6,7.4c-1.1,0.3-1.7,1.4-1.4,2.5
						c0.2,0.9,1,1.5,1.9,1.5c0.2,0,0.4,0,0.5-0.1l179.4-48.2c1.1-0.3,1.7-1.4,1.4-2.4C641,438.1,640.4,437.6,639.6,437.4z
						 M596,448.9v-14.4l17.6,2.8v6.8L596,448.9z M568.8,456.2V451l19.2-2.6c1.1-0.1,1.9-1.2,1.7-2.3c-0.1-1.1-1.2-1.9-2.3-1.7
						l-18.7,2.5v-10.5l7.1,0.5h0.2c1.1,0,2-0.8,2.1-1.9s-0.8-2-1.9-2.1l-7.4-0.5v-2.2l23.2,3.7V450L568.8,456.2z M461.5,442.3
						c17.8-24.8,47.3-21.6,53.1-20.7l4.2,0.7c-8.6,1.9-16.5,6-23,11.8c-1.1,1-2.2,2-3.4,3.1c-7.5,6.9-16,14.7-28.6,13.5
						c-2.3-0.1-4.4-1-6.1-2.5C458.8,446.3,460,444.4,461.5,442.3L461.5,442.3z M512.8,471.2c-17.5,4.6-48.9,5-61.5-8.2
						c1-3.9,2.5-7.7,4.4-11.2c2.2,1.7,4.9,2.7,7.7,2.9c1,0.1,1.9,0.1,2.9,0.1c12.8,0,21.6-8.1,28.8-14.7c1.1-1,2.2-2.1,3.3-3
						c15-13.2,32-12.9,40.8-11.5l0,0l25.6,4.1c0,0.1,0,0.1,0,0.2v4.3c0,0,0,0,0,0.1c0,0.1,0,0.2,0,0.4v14.6c0,0.1,0,0.3,0,0.4v7.5
						c0,0.1,0,0.3-0.1,0.4L513,471.2L512.8,471.2z M617.7,443.1V438l12,1.9L617.7,443.1z"/>
					
						<ellipse transform="matrix(0.9754 -0.2204 0.2204 0.9754 -90.036 116.0828)"  cx="475.3" cy="461.6" rx="3.6" ry="2.5"/>
				</g>
				<g id="MotorcyclesFill" class="st1" >
					<path d="M402.2,401.7c-8.7,0-16.4-5.4-19.4-13.5l-6.3,0.1c-0.2,0.9-0.4,1.5-0.4,1.7c-0.3,1.3-1.4,2.2-2.7,2.2
						h-34.6c-1.3,0-2.5-0.9-2.7-2.2c-0.7-3.7-1.8-7.2-3.3-10.6c0.1,0.6,0.1,1.3,0.1,1.9c0.1,11.4-9.1,20.7-20.5,20.7
						c-11.4,0.1-20.7-9.1-20.7-20.5c0-3.7,0.9-7.2,2.8-10.4c-2.5,0.7-4.1,0.5-5.2-0.8c-1-1.4-0.9-3.2,0.3-4.4
						c0.1-0.1,0.2-0.2,0.3-0.3c4.5-4,9.9-6.9,15.8-8.4c-1-0.3-2-0.5-3-0.7c-1.5-0.2-2.5-1.6-2.3-3.1c0-0.2,0.1-0.4,0.2-0.6
						c2-5.3,13.3-18.2,13.8-18.8l0.1-0.1c3.3-3.3,6.7-5,9.9-5h0.1c1.7,0,3.3,0.5,4.7,1.5c1.2,1,1.3,2.7,0.3,3.9
						c-0.1,0.1-0.2,0.2-0.3,0.3c-3.1,2.8-5.4,6.3-6.5,10.3c0.5,0.3,1.1,0.5,1.6,0.6c0.6-1,1.7-2.9,2.4-4c2.1-3.4,4.7-7,8.7-6.3
						c0.8,0.1,1.4,0.9,1.2,1.8s-0.9,1.4-1.8,1.2c-1.5-0.2-3,0.5-5.7,4.9c-0.4,0.6-0.9,1.5-1.4,2.3c2.9-0.6,5.7-1.7,8.2-3.2
						c0.2-0.2,0.5-0.3,0.8-0.4c12.7-3.2,17.9,4,18.4,4.9c3.5,5.1,8,8.1,13.2,8.8c11.5,1.5,23.4-8.4,23.5-8.5
						c0.2-0.2,0.5-0.3,0.7-0.5c8.7-3.5,19.4,2.8,19.9,3c1.3,0.8,1.7,2.4,1,3.8c-0.5,0.8-1.3,1.3-2.2,1.3
						c-13.6,0.7-22.2,9.1-27.1,16.7h0.1c5.5-9.9,18-13.6,28-8s13.6,18,8,28C416.5,397.6,409.6,401.7,402.2,401.7L402.2,401.7z
						 M383.9,385.1c0.7,0,1.2,0.4,1.4,1.1c2.8,9.3,12.6,14.5,21.8,11.7c9.3-2.8,14.5-12.6,11.7-21.8c-2.8-9.3-12.6-14.5-21.8-11.7
						c-4.7,1.4-8.6,4.7-10.7,9.1c-0.3,0.6-1,1-1.7,0.8l-3.3-0.8c-0.8-0.2-1.3-1-1.1-1.8c0-0.1,0.1-0.3,0.2-0.4
						c5.1-8.5,14.4-18.7,29.8-19.9c-2.5-1.3-10.3-4.9-16.4-2.4c-0.1,0.1-12.9,10.8-25.8,9.1c-6-0.8-11.2-4.2-15.2-10.1
						c-0.2-0.3-4.3-6.4-15.2-3.6c-0.2,0.1-6.6,4.2-12.4,3.8c-2.1,0.3-4.2-0.6-5.5-2.3c-0.2-0.3-0.3-0.8-0.2-1.2
						c1.2-4.8,3.8-9.1,7.5-12.5c-0.8-0.4-1.6-0.7-2.5-0.7l0,0c-2.5,0-5.1,1.4-7.9,4.1c-3.1,3.5-11.3,13.5-13.2,17.6
						c2.9,0.6,5.8,1.4,8.6,2.6c0.8,0.3,1.1,1.2,0.8,2c-0.2,0.5-0.7,0.9-1.2,0.9c-7.3,0.8-14.2,3.9-19.8,8.8
						c-0.2,0.3-0.3,0.6-0.2,0.6s0.9,0.6,6.7-2c0.8-0.3,1.6,0,2,0.7c0.3,0.6,0.1,1.3-0.3,1.7c-6.9,6.8-6.9,17.9-0.1,24.8
						c6.8,6.9,17.9,6.9,24.8,0.1c3.3-3.3,5.2-7.7,5.2-12.4c0-5.8-2.8-11.2-7.6-14.4c-0.6-0.4-0.8-1.2-0.5-1.9l0.4-0.9
						c0.4-0.7,1.3-1,2-0.7c0.1,0.1,0.2,0.1,0.3,0.2c7.6,6.5,12.5,15.1,14.6,25.6h34.2c0.1-0.4,0.3-1.4,0.7-2.8
						c0.2-0.6,0.8-1.1,1.4-1.1L383.9,385.1L383.9,385.1z M373.2,389.3L373.2,389.3z M402.2,393.8c-4.9,0-9.4-2.9-11.5-7.4
						c-0.6-1.4,0-3,1.3-3.6c0.3-0.2,0.7-0.2,1.1-0.3l9.6-0.1h0.2c0.5,0,0.9-0.4,0.9-0.9c0-0.5-0.4-1-0.9-1c-0.2,0-0.4,0-0.5,0.1
						c-0.6,0.3-1.2,0.4-1.9,0.2l-7.7-1.9c-1.5-0.4-2.4-1.9-2-3.3c0.1-0.2,0.1-0.5,0.3-0.7c3.5-6.1,11.2-8.2,17.3-4.7
						s8.2,11.2,4.7,17.3C410.9,391.4,406.7,393.8,402.2,393.8L402.2,393.8z M393.5,385.5c2.4,4.7,8.2,6.6,12.9,4.2
						c4.7-2.4,6.6-8.2,4.2-12.9c-2.4-4.7-8.2-6.6-12.9-4.2c-1.6,0.8-2.9,2-3.8,3.5l7.3,1.8c0.5-0.3,1.1-0.4,1.7-0.4
						c2.2,0.3,3.7,2.3,3.5,4.5c-0.2,1.7-1.5,3.1-3.2,3.4c-0.1,0-0.2,0-0.3,0L393.5,385.5z M312.2,393.8c-7,0-12.6-5.6-12.7-12.6
						c0-7,5.6-12.6,12.6-12.7c1.1,0,2.2,0.1,3.3,0.4c0.9,1.3,2.4,2,4,1.8c5.7,3.9,7.2,11.8,3.3,17.5
						C320.4,391.8,316.4,393.8,312.2,393.8L312.2,393.8z M312.2,371.5c-5.3,0-9.7,4.3-9.7,9.7c0,5.3,4.3,9.7,9.7,9.7
						c5.3,0,9.7-4.3,9.7-9.7c0-3.1-1.5-6-3.9-7.8l-3,5.9c0.4,0.6,0.6,1.3,0.6,2c0,2.2-1.8,4-4,4s-4-1.8-4-4s1.8-4,4-4h0.2l2.6-5.7
						C313.7,371.5,312.9,371.5,312.2,371.5L312.2,371.5z M311.5,380.4c-0.6,0-1,0.5-0.9,1.1c0,0.6,0.5,1,1.1,0.9
						c0.5,0,0.9-0.5,0.9-1c0-0.2-0.1-0.4-0.2-0.5c-0.1-0.1-0.2-0.3-0.2-0.4c-0.2,0-0.4,0-0.5,0L311.5,380.4z"/>
				</g>
				<g id="Trucks and BusesFill" class="st1" >
					<path d="M469.1,317.3h-7c-2.7,0-4.9-2.2-4.9-4.9v-3.7c0-2.6,1.4-5,3.7-6.1v-15.8c0-4.8,3.3-9,8-10.2l4.5-1v-0.6
						c0-11.1,0.9-19.2,12.7-22.8c2.6-0.8,5.4-1.2,8.1-1.1l19.8,0.2c0.8-0.1,1.6-0.1,2.4,0.1v-8.7c0-7.8,6.4-14.1,14.2-14.1h93.5
						c7.8,0,14.2,6.3,14.2,14.1v69.7c0,1.9-1.5,3.4-3.4,3.4h-8.8c-1.7,0-3.2-1.3-3.3-3c-0.3-2.5-1.1-4.9-2.5-7.1
						c-0.1-0.2-0.2-0.4-0.3-0.5c-5.3-7.6-15.7-9.4-23.3-4.2c-2.3,1.6-4.1,3.7-5.4,6.2c-0.8,1.7-2.9,2.3-4.5,1.5
						c-0.6-0.3-1.2-0.8-1.5-1.5c-2.8-5.6-8.6-9.2-14.9-9.2c-5.4,0-10.5,2.6-13.7,7.1c-0.1,0.2-0.2,0.4-0.3,0.6
						c-1.4,2.2-2.2,4.6-2.5,7.1c-0.2,1.7-1.6,3-3.3,3H509c-1.7,0-3.2-1.3-3.3-3c-1-9.1-9.2-15.8-18.3-14.8
						c-8.3,0.9-14.7,7.8-14.9,16.2C472.4,315.8,470.9,317.3,469.1,317.3z M494,253.9c-2.4,0-4.7,0.3-7,1c-9.9,3-10.6,9.5-10.6,20
						v1.8c0,0.7-0.5,1.3-1.2,1.5l-5.6,1.3c-3.3,0.8-5.7,3.8-5.7,7.2v16.8c0,0.6-0.4,1.2-1,1.4c-1.6,0.5-2.7,2-2.7,3.7v3.7
						c0,1,0.8,1.9,1.9,1.9h7c0.2,0,0.4-0.2,0.4-0.4c0.2-10.9,9.2-19.5,20-19.2c9.9,0.2,18.1,7.7,19.1,17.5c0,0.2,0.2,0.3,0.4,0.3
						h7.5v-58.2c-0.7-0.2-1.4-0.2-2.1-0.1c-0.1,0-0.1,0-0.2,0l-20-0.2L494,253.9z M606.5,294.7c6.5,0,12.6,3.2,16.3,8.6
						c0.1,0.1,0.1,0.3,0.2,0.4c1.6,2.6,2.7,5.4,3,8.5c0,0.2,0.2,0.3,0.4,0.3h8.8c0.2,0,0.4-0.2,0.4-0.4v-69.7
						c0-6.2-5-11.1-11.2-11.1h-93.6c-6.2,0-11.1,5-11.2,11.1v10.8c0,0.1,0,0.2,0,0.3v59h31.2c0.2,0,0.3-0.1,0.3-0.3
						c0.4-3,1.4-5.8,3-8.4c0,0,0-0.1,0-0.1c0-0.2,0.1-0.3,0.2-0.5c3.7-5.4,9.8-8.5,16.3-8.5c7.4,0,14.2,4.2,17.5,10.8
						c0.1,0.2,0.3,0.2,0.5,0.1c0.1,0,0.1-0.1,0.1-0.1C592.1,298.9,599,294.7,606.5,294.7L606.5,294.7z"/>
					<path d="M488.6,328.4c-7.7,0-14-6.3-14-14s6.3-14,14-14s14,6.3,14,14S496.4,328.4,488.6,328.4z M488.6,303.4
						c-6.1,0-11,4.9-11,11s4.9,11,11,11s11-4.9,11-11l0,0C499.6,308.3,494.7,303.4,488.6,303.4z"/>
					<path d="M570.3,328.4c-7.7,0-14-6.3-14-14s6.3-14,14-14s14,6.3,14,14S578,328.4,570.3,328.4z M570.3,303.4
						c-6.1,0-11,4.9-11,11s4.9,11,11,11s11-4.9,11-11l0,0C581.3,308.3,576.4,303.4,570.3,303.4z"/>
					<path d="M606,328.4c-7.7,0-14-6.3-14-14s6.3-14,14-14s14,6.3,14,14S613.7,328.4,606,328.4z M606,303.4
						c-6.1,0-11,4.9-11,11s4.9,11,11,11s11-4.9,11-11l0,0C617,308.3,612.1,303.4,606,303.4z"/>
					<path d="M505.6,281.7h-23.1c-1.9,0-3.4-1.5-3.4-3.4v-7.6c0-8.3,4.6-13.5,12.1-13.5h11.3c3.6,0,6.5,2.9,6.5,6.5
						v14.7C509,280.2,507.5,281.7,505.6,281.7z M491.2,260.1c-5.8,0-9.1,3.8-9.1,10.5v7.6c0,0.2,0.2,0.4,0.4,0.4h23.1
						c0.2,0,0.4-0.2,0.4-0.4v-14.7c0-1.9-1.5-3.5-3.5-3.5H491.2z"/>
				</g>
				<g id="Classic CarsFill" class="st1">
					<path d="M212,333.8c-5.2,0-9.5-4.3-9.5-9.5s4.3-9.5,9.5-9.5s9.5,4.3,9.5,9.5l0,0
						C221.5,329.6,217.2,333.8,212,333.8z M212,317.8c-3.6,0-6.5,2.9-6.5,6.5s2.9,6.5,6.5,6.5s6.5-2.9,6.5-6.5l0,0
						C218.5,320.7,215.6,317.8,212,317.8z M104.7,333.8c-5.2,0-9.5-4.3-9.5-9.5s4.3-9.5,9.5-9.5s9.5,4.3,9.5,9.5l0,0
						C114.2,329.6,109.9,333.8,104.7,333.8z M104.7,317.8c-3.6,0-6.5,2.9-6.5,6.5s2.9,6.5,6.5,6.5s6.5-2.9,6.5-6.5l0,0
						C111.2,320.7,108.3,317.8,104.7,317.8z M92.6,333.8h-2.5c-2.7,0-5.4-0.3-8-0.9c-1.9-0.5-8-2.5-9.1-7.5
						c-0.4-1.6-0.1-3.3,0.6-4.8c-0.2-0.5-0.3-0.9-0.4-1.4c0,0-1-5.6,0.8-9c0.6-1.1,1.3-2,2.2-2.8c1-2.6,2.6-4.9,4.7-6.8
						c5-3.9,18.8-6.5,22.9-7.2c8.1-1.4,15.9-2.2,18.9-2.5l0.8-0.1h0.1l1.4-0.3l2.5-0.4c2.1-1,4.2-2,6.3-3.2l3.1-1.7
						c3.1-1.7,6.1-3.3,8.3-4.5c0.3-0.5,0.6-0.9,1.1-1.3c1.2-1,2.6-1.8,4.1-2.1c3.8-1,12.5-2.1,24.6-2.1c13,0,24,1.6,33.5,5
						c3.7,1.3,7.9,3.1,11.6,4.7l0.1,0.1c3.3,1.5,6.6,2.8,10,3.9c2.4,0.5,4.8,0.7,7.3,0.8c3.9,0.3,5.7,0.4,7.4,1.5
						c2.3,1.4,3.7,4,4.1,7.5c0.6,1.2,1.1,2.4,1.5,3.6c0.3,0.9,0.5,1.8,0.6,2.7c1,1,1.8,2.2,2.4,3.5c1,3-0.2,11.2-2.7,14.4
						c-2.8,3.5-9.7,6.2-12.7,7c-3.5,0.9-10.5,2-10.9,2l-2.3,0.4c-1.5,0.2-2.9-0.8-3.2-2.3c-0.1-0.5,0-1,0.2-1.5
						c2.3-5.6-0.3-12-5.9-14.4s-12,0.3-14.4,5.9c-1.2,2.9-1.1,6.3,0.3,9.1c0.1,0.2,0.2,0.3,0.2,0.5c0.3,1.1-0.1,2.4-1,3.1
						c-0.5,0.4-1.2,0.6-1.9,0.5l-2.5-0.1c-5.4-0.2-19.8-0.7-38-0.7c-22.6,0-39.8,0.7-39.9,0.7l-1.9,0.1c-0.5,0-1.1-0.1-1.5-0.3
						c-1.3-0.7-1.8-2.4-1.1-3.8c0,0,0,0,0-0.1c0.7-1.5,1.1-3.2,1.1-4.9c-0.1-6.1-5.1-10.9-11.2-10.8c-6.1,0.1-10.9,5.1-10.8,11.2
						c0,1.7,0.5,3.5,1.3,5c0.7,1.2,0.4,2.7-0.7,3.6C93.8,333.6,93.2,333.8,92.6,333.8L92.6,333.8z M92.6,330.8L92.6,330.8z
						 M175.1,278.5c-11.9,0-20.3,1.1-23.9,2c-1,0.2-2,0.6-2.8,1.3c-0.3,0.3-0.5,0.6-0.7,1c-0.1,0.3-0.4,0.5-0.6,0.6
						c-2.2,1.2-5.5,2.9-8.7,4.6l-3.1,1.7c-4.6,2.5-6.4,3.4-7.2,3.6l-2.4,0.4l-1.3,0.3h-0.2h-0.2l-0.9,0.1
						c-2.9,0.3-10.7,1.1-18.7,2.4c-7.8,1.3-18.1,3.9-21.6,6.6c-1.9,1.5-3.3,4.3-3.9,5.9c-0.1,0.2-0.2,0.4-0.4,0.5
						c-0.7,0.6-1.3,1.3-1.7,2.1c-1.1,2-0.7,6.1-0.6,7c0.1,0.5,0.3,1.1,0.5,1.6c0.2,0.4,0.1,0.9-0.2,1.4c-0.6,0.9-0.8,2.1-0.6,3.1
						c0.7,3.4,5.9,5,7,5.2c2.4,0.5,4.8,0.8,7.2,0.8h2.1c-3.5-6.9-0.8-15.3,6.1-18.8c6.9-3.5,15.3-0.8,18.8,6.1c1,2,1.5,4.1,1.5,6.3
						c0,2.1-0.5,4.1-1.4,6l1.6-0.1c0.1,0,17.1-0.7,40.1-0.7c18.3,0,32.8,0.5,38.1,0.7l2.2,0.1c-0.9-1.9-1.4-3.9-1.4-6
						c0.1-7.7,6.4-14,14.1-13.9c7.7,0.1,14,6.4,13.9,14.1c0,1.7-0.3,3.3-0.9,4.9l2-0.3c0.4-0.1,7.2-1.1,10.6-2
						c2.8-0.7,8.9-3.2,11-5.9c1.8-2.3,2.9-9.4,2.2-11.5c-0.4-1-1.1-1.9-1.9-2.6c-0.3-0.2-0.4-0.6-0.5-0.9c-0.1-0.9-0.3-1.9-0.6-2.8
						c-0.4-1.1-0.8-2.2-1.4-3.3c-0.1-0.2-0.2-0.4-0.2-0.6c-0.2-1.9-0.8-4.4-2.7-5.6c-1.1-0.7-2.3-0.8-6.1-1
						c-2.6-0.1-5.2-0.4-7.8-0.9c-3.6-1.2-7.1-2.5-10.5-4.1l-0.1-0.1c-3.7-1.6-7.9-3.4-11.5-4.6C198.4,280,187.7,278.5,175.1,278.5z
						 M117,330.4L117,330.4z M199.7,330.4L199.7,330.4z M132.7,301.9c-1.5,0-2.8-1.3-2.8-2.8c0-0.9,0.5-1.8,1.2-2.3
						c2.7-1.8,7.3-4.5,9.2-5.6l1-0.6l0.1-0.1l0,0c3.6-2,8.9-4.5,13.5-5.5c4-0.8,8.1-1.2,12.2-1.3c0.8,0,1.7,0.4,2.2,1
						c0.6,0.6,0.8,1.5,0.6,2.3l-2,11.5c-0.2,1.3-1.3,2.3-2.6,2.3c-6.9,0.3-12.6,0.4-17.4,0.5h-0.6h-1h-1.8h-1.4h-0.4
						c-7.4,0.3-9.8,0.5-9.8,0.5L132.7,301.9z M142.9,293.2l-1.1,0.6c-1.8,1-5.8,3.3-8.4,5c1.2-0.1,4-0.3,9.3-0.4h0.2h1.5h1.8h1h0.6
						c4.7-0.1,10.4-0.3,17.1-0.5l1.9-11c-3.8,0.1-7.6,0.5-11.4,1.3c-4.3,1-9.2,3.4-12.7,5.3L142.9,293.2z M174.2,300.6
						c-1.5,0-2.8-1.3-2.8-2.8c0-0.2,0-0.3,0-0.5l1.9-11.5c0.2-1.3,1.3-2.3,2.7-2.3c1,0,2.1,0,3.2,0c8.9,0,16.9,0.9,22,2.5
						c5.2,1.8,10,4.5,14.2,8.1l0.4,0.4c1.2,0.9,1.4,2.7,0.5,3.9c-0.5,0.7-1.3,1.1-2.1,1.1h-0.3l-2.1,0.1h-0.6L204,300
						c-5.3,0.3-12,0.4-19.6,0.5h-0.1l-8.7,0.1h-0.6L174.2,300.6L174.2,300.6z M174.2,297.6L174.2,297.6z M176.3,286.6l-1.8,11h0.2
						h0.7l8.7-0.1h0.1c7.7-0.1,14.3-0.2,19.5-0.5l7.3-0.4h0.4h0.2l1.9-0.1l0,0c-3.9-3.3-8.4-5.9-13.2-7.6
						c-4.8-1.5-12.5-2.4-21.1-2.4C178.2,286.5,177.2,286.5,176.3,286.6L176.3,286.6z"/>
				</g>
				<g id="Vintage CarsFill" class="st1" >
					<path d="M295.6,243c-5.8,0-10.5-4.7-10.5-10.5c0-5.8,4.7-10.5,10.5-10.5c5.8,0,10.5,4.7,10.5,10.5
						C306.1,238.4,301.4,243,295.6,243z M295.6,225c-4.1,0-7.5,3.4-7.5,7.5s3.4,7.5,7.5,7.5c4.1,0,7.5-3.4,7.5-7.5
						C303.1,228.4,299.8,225.1,295.6,225L295.6,225z"/>
					<path d="M407.3,243c-5.8,0-10.5-4.7-10.5-10.5c0-5.8,4.7-10.5,10.5-10.5c5.8,0,10.5,4.7,10.5,10.5
						C417.8,238.4,413.1,243,407.3,243z M407.3,225c-4.1,0-7.5,3.4-7.5,7.5s3.4,7.5,7.5,7.5c4.1,0,7.5-3.4,7.5-7.5
						C414.8,228.4,411.4,225.1,407.3,225L407.3,225z"/>
					<path d="M390.2,236.3c-3.3,0-21.8-0.2-39.6-0.4s-36.2-0.4-39.5-0.4c-0.4,0-0.8,0-1.2,0c-1.4-0.1-2.4-1.3-2.4-2.6
						c0-0.1,0-0.2,0-0.4c-0.1-6.6-5.5-11.9-12.1-11.9c-4.3,0-8.3,2.4-10.4,6.2c-0.6,1.1-1.9,1.6-3.1,1.2c-1-0.3-2-0.7-3-1.2
						c-0.7-0.4-1.2-1.1-1.3-1.9c0-0.1-0.9-7.2,5.2-11.1c-0.3-0.7-0.4-1.5-0.5-2.3c0-3.4,2.3-6.1,5.2-6.1c0.7,0,1.4,0,2.1,0.1
						c1-1.2,2.5-1.9,4-1.9c6.8,0,32.2-0.4,39.4-0.9c2-4.7,4.5-10.2,5.8-11.6c2.2-2.3,5.6-3.6,11.6-4.4c8.9-1,17.8-1.5,26.7-1.6
						c5.6,0,22.9,0.7,28.7,3.9c4.3,2.4,6.5,6.9,9.1,12.3l1.1,2.2c1.4-0.4,2.9-0.2,4.2,0.5c3.2,1.9,8,9.2,8.1,9.3l0.6,0.9
						c2.1,3.1,5.2,7.9,4.6,12.5c-0.9,6.9-5,8.2-11.8,8.3c-1.4,0-2.6-1.1-2.6-2.5c0,0,0,0,0,0c-0.4-6.6-6.1-11.6-12.7-11.2
						c-6,0.4-10.8,5.2-11.2,11.2c0,0.3,0,0.7,0,1c0.1,1.4-0.9,2.6-2.3,2.8c0,0-0.1,0-0.1,0C391.8,236.3,390.9,236.3,390.2,236.3z
						 M392.4,233.8L392.4,233.8z M310.6,232.6h0.5c3.3,0,21.7,0.2,39.5,0.4s36.2,0.4,39.5,0.4h2.1c0-0.2,0-0.5,0-0.8
						c0.4-8.3,7.4-14.7,15.7-14.3c7.6,0.4,13.7,6.3,14.3,13.8c7.1-0.1,7.9-2.2,8.4-5.7s-2.3-7.7-4.2-10.5l-0.6-0.9
						c-1.8-2.8-5.3-7.3-7.1-8.3c-0.9-0.4-2-0.4-2.9,0.1c-0.7,0.3-1.6,0-1.9-0.7c-0.6-1.1-1.1-2.2-1.6-3.3c-2.4-4.9-4.4-9.1-7.9-11
						c-4.4-2.4-18.8-3.5-27.2-3.5c-8.8,0.1-17.6,0.6-26.3,1.5c-5.2,0.7-8.2,1.7-9.8,3.4c-0.8,0.8-3,5.5-5.6,11.6
						c-0.2,0.5-0.7,0.9-1.3,0.9c-5.9,0.5-33.2,0.9-40.6,1c-0.9,0.2-1.8,0.7-2.3,1.5c-0.4,0.4-1,0.6-1.5,0.5
						c-0.7-0.2-1.5-0.2-2.2-0.2c-1.2,0-2.2,1.4-2.2,3.1c0,0.7,0.3,1.4,0.7,2c0.5,0.7,0.3,1.6-0.3,2.1c-0.1,0.1-0.1,0.1-0.2,0.1
						c-3.3,1.5-5.2,5-5,8.6c0.3,0.1,0.9,0.4,2,0.8c4.2-7.2,13.4-9.6,20.5-5.4C307.7,222.5,310.5,227.4,310.6,232.6L310.6,232.6z
						 M389.6,211.3c-1.2,0-2.8,0-5.2-0.1c-1.2,0-2.4-0.1-3.5-0.1c-1.5,0-2.8,0-4,0c-3.7,0-5.7,0-7.1-1.1c-1.7-1.3-1.8-4.2-1.8-7.7
						v-0.6c0-0.6,0-5.8,2-7.6c1.7-1.6,3.7-1.8,11-1.1c1.7,0.1,7.3,0.8,10,3.1c1.5,1.3,2.7,3,3.4,4.9l0.4,0.8
						c1.8,3.8,2.2,6.1,1.2,7.7S393.1,211.3,389.6,211.3z M378.4,208.1h2.5c1.1,0,2.3,0.1,3.5,0.1c2.5,0.1,4,0.1,5.2,0.1
						c3,0,3.6-0.3,3.7-0.4c0.2-0.4,0.3-1.5-1.4-5l-0.4-0.9c-0.5-1.5-1.4-2.8-2.5-3.8c-1.4-1.1-4.7-2.1-8.4-2.4
						c-6.4-0.6-7.9-0.4-8.6,0.3c-0.6,0.5-1,3.3-1,5.5v0.5c0,1.3,0,4.9,0.6,5.4s2.6,0.5,5.3,0.5L378.4,208.1z M360.5,210.5h-2
						c-1.6,0-4.2,0-7.8,0c-9.2,0-10.5-0.5-11.7-2c-2.1-2.3-0.3-7.1,0.3-8.5l0.2-0.6c1.2-2.8,2.4-5.7,6.9-6.3c0.1,0,15-1.3,17.2-0.1
						c2.6,1.4,2.4,4.3,2.3,6.7c0,0.5,0,1,0,1.5c0,5.5-0.3,7.4-1.6,8.4C363.4,210.4,362.7,210.5,360.5,210.5z M359.5,195.5
						c-4.2,0-11.3,0.5-12.6,0.6c-2.7,0.4-3.3,1.6-4.5,4.5l-0.2,0.6c-1.2,2.9-1.2,4.9-0.9,5.3l0.1,0.1c0.4,0.5,1.5,0.9,9.5,0.9
						c3.6,0,6.1,0,7.8,0h2c0.6,0,1.2,0,1.8-0.1l0.2-0.1c0.2-0.1,0.5-1,0.5-6.1c0-0.5,0-1.1,0-1.6c0.1-2.1,0.1-3.5-0.7-3.9
						C361.4,195.5,360.4,195.4,359.5,195.5L359.5,195.5z"/>
				</g>
				<g id="PlanesFill" class="st1" >
					<path d="M443.8,124.3c-3.2-0.1-5.8-2.7-5.9-5.9l-0.3-3.9l-2.9,0.4c-0.7,0.9-1.7,1.4-2.8,1.6l0,0
						c-1.9,0.3-3.8,0.4-5.7,0.5c-2.9-0.1-5.2-2.5-5.1-5.4V111c-0.3-3.4-0.4-4.6-0.4-5c0-0.1,0-0.1,0-0.2c-5.2-0.4-9.7-0.9-10.8-1
						c-4.4-0.3-19.4-1.5-25.8-2.9c-7.7-1.7-16.6-4.5-16.6-11.6c0-4.3,3.7-7.7,10.9-10c3.7-3.5,10.9-4.9,22.4-4.4
						c13.4,0.7,19.4,1.6,21,1.9c1.2,0,5,0.1,10,0.2l3.9-1.5l27.7-10.8c2-0.7,4-1.1,6.1-1.2c1.1,0,6.1,0.5,7.1,0.6
						c1.3,0.2,2.4,1.1,2.7,2.4c0.6,2.1-0.7,4.6-3.5,6.9l-0.2,0.1l-5.3,3.7h5.7h6.2h5.1l10-7.2c8.3-6.3,13.5-10.6,15.3-12.1l0.1-0.1
						c1.4-1.2,3.2-1.8,5-1.8h5.8c1.5,0,3,0.7,4,1.9c1.2,1.5,1.5,3.5,0.8,5.3c-0.1,0.2-0.3,0.6-1.1,2.3s-1.9,3.9-2.9,6
						c0.8,1.3,0.9,2.9,0.4,4.2l-1,2.4c0.5,0.4,1,0.8,1.5,1.3c1.3,1.6,1.8,3.6,1.4,5.6l7.3,2.7c1.6,0.5,2.5,2.1,2,3.7
						c-0.4,1.2-1.4,2.1-2.7,2.1l-12.4,1.5c-0.2,0-0.4,0-0.6,0h-0.2l-4.2-0.5l-1.2,0.3l-24.2,5.4c-0.1,0-11.6,2.5-20.6,3.4
						c5.8,3.4,12.1,7.2,16.9,10l0.2,0.1c0.1,0.1,0.2,0.2,0.4,0.2l0.1,0.1c2.4,1.4,5,3,4.1,5.6c-0.6,1.6-2.8,3.5-7.2,3.5h-8.9
						c-0.9,0-1.8-0.2-2.7-0.5l-12.2-4.9c-0.2,0.1-0.4,0.2-0.6,0.3c-0.7,1.5-2.1,2.6-3.8,2.9c-1.2,0.2-2.7,0.4-3.6,0.5l-0.5,0.1
						c-0.8,0.7-1.7,1.1-2.7,1.2H449C447.3,124.1,445.5,124.2,443.8,124.3z M439,111.1c0.8,0,1.5,0.7,1.5,1.5c0,0.1,0,0.2,0,0.2
						c0,0.3,0,0.5,0,0.8l0.4,4.6c0,1.6,1.3,3,2.9,3.1c1.6,0,3.2-0.2,4.8-0.4h0.2c0.5-0.1,0.9-0.3,1.2-0.6c0.2-0.3,0.6-0.4,0.9-0.4
						l0.9-0.1c1-0.1,2.5-0.4,3.7-0.5c0.8-0.1,1.4-0.7,1.5-1.4c0.1-0.6,0.6-1.1,1.3-1.2c0.2,0,0.4-0.1,0.5-0.3
						c0.4-0.5,1.1-0.7,1.8-0.5l13,5.2c0.5,0.2,1.1,0.3,1.6,0.3h8.9c3.1,0,4.2-1.2,4.3-1.5c-0.1-0.4-1.9-1.5-2.9-2.1l-0.2-0.1
						l-0.3-0.2c-5.9-3.5-14.2-8.4-20.9-12.4c-0.7-0.4-0.9-1.3-0.5-2.1c0.2-0.4,0.7-0.7,1.2-0.7l2.1-0.2c9-0.6,22.6-3.6,22.8-3.6
						l25.7-5.7c0.2,0,0.3,0,0.5,0l4.7,0.6l12.3-1.5l-8.5-3.2c-0.7-0.3-1.1-1-0.9-1.7l0.2-1.1c0.3-1.1,0-2.3-0.8-3.2
						c-0.4-0.5-1-0.9-1.6-1.2c-0.8-0.3-1.2-1.2-0.9-1.9c0,0,0,0,0-0.1l1.6-3.7c0.2-0.5,0.2-1-0.1-1.5c-0.1-0.1-0.2-0.2-0.3-0.3
						c-0.4-0.4-0.6-1.1-0.3-1.7c1.1-2.4,2.4-5.1,3.3-6.9c0.5-1.1,0.9-1.9,1-2c0.3-0.8,0.2-1.7-0.4-2.3c-0.4-0.5-1-0.8-1.7-0.7h-5.8
						c-1.1,0-2.2,0.3-3,1l-0.1,0.1c-1.8,1.5-7.1,5.8-15.5,12.2c-6.1,4.4-9.4,6.8-10.4,7.5c-0.3,0.2-0.6,0.3-0.9,0.3h-5.6h-6.2
						l-10.5,0.1l0,0c-0.8,0-1.5-0.7-1.5-1.5c0-0.5,0.2-1,0.6-1.2l9.2-6.4c2-1.6,2.7-3.1,2.5-3.8c0-0.1-0.1-0.2-0.3-0.2
						c-1.1-0.1-5.9-0.6-6.7-0.6c-1.7,0.1-3.4,0.4-5,1L432.6,81c-0.2,0.1-0.4,0.1-0.6,0.1c-5.4-0.1-9.3-0.2-10.5-0.2h-0.2
						c-1.5-0.3-7.3-1.2-20.8-1.8c-1.6-0.1-3.1-0.1-4.5-0.1c-8,0-13.5,1.3-15.9,3.8c-0.2,0.2-0.4,0.3-0.6,0.4
						c-4.2,1.3-9.1,3.6-9.1,7.2c0,2.4,1.5,5.9,14.3,8.7c6.2,1.4,21,2.5,25.3,2.8h0.1c1.1,0.1,6.5,0.6,12.2,1.1
						c0.8,0.1,1.4,0.8,1.4,1.6c0,0.1,0,0.3-0.1,0.4c-0.1,0.3-0.1,0.6-0.1,0.9c0,0.4,0.1,1.8,0.4,5v0.6c0,1.1,0.7,2.6,2.1,2.6
						c1.7-0.1,3.5-0.2,5.2-0.5h0.1c0.4,0,0.8-0.3,1-0.7c0.2-0.4,0.7-0.7,1.1-0.8c1.4-0.2,3.1-0.4,4.4-0.6c0.1,0,0.2-0.1,0.3-0.1
						C438.4,111.2,438.7,111.1,439,111.1z M453.3,95.4h-9.8c-12.6,0-25.6-0.1-35.3-0.5c-0.8,0-1.5-0.7-1.4-1.6s0.7-1.5,1.6-1.4
						c9.6,0.4,22.6,0.5,35.2,0.5c24,0.1,36.9-0.2,40.9-0.3l0,0c0.8,0,1.5,0.7,1.5,1.5s-0.7,1.5-1.5,1.5
						C481.1,95.1,471.2,95.4,453.3,95.4L453.3,95.4z M389.3,89.7H389c-4.9-0.1-7.9-0.8-9-2.1c-0.4-0.5-0.6-1.1-0.5-1.8
						c0.1-1.2,1-2.2,2.1-2.6l2.5-1.3c0.9-0.8,2.2-1,3.2-0.4c0.3,0.1,1.5,0.2,2.1,0.3l1.5,0.2l0.5,0.1c1.4,0.2,2.4,1.6,2.2,3
						c-0.1,0.4-0.2,0.7-0.4,1l-1.6,2.4C391.1,89.2,390.3,89.7,389.3,89.7L389.3,89.7z M389.3,86.7L389.3,86.7z M382.9,85.9
						c2,0.5,4.1,0.8,6.2,0.8h0.1l1.1-1.7l-1.4-0.2c-1-0.1-2-0.2-3-0.6c-0.1,0.1-0.2,0.1-0.3,0.2L382.9,85.9z M382.1,84.6L382.1,84.6
						z"/>
				</g>
			</g>
			<g id="Labels">
				<g id="ShipsTextFill" class="st1 st2 st3">
					<text id="ShipsValue" transform="matrix(1 0 0 1 46.4 469.4291)" >n/a</text>
					<text transform="matrix(1 0 0 1 46.4 441.4291)" class="st4 st5">Ships</text>
				</g>
				<g id="TrainsTextFill" class="st1 st2 st3">
					<text id="TrainsValue" transform="matrix(1 0 0 1 606.01 510.1491)" >n/a</text>
					<text transform="matrix(1 0 0 1 606.01 482.1491)" class="st4 st5">Trains</text>
				</g>
				<g id="MotorcyclesTextFill" class="st1 st2 st3" >
					<text id="MotorcyclesValue" transform="matrix(1 0 0 1 200.93 434.4591)" >n/a</text>
					<text transform="matrix(1 0 0 1 200.93 406.4591)" class="st4 st5">Motorcycles</text>
				</g>
				<g id="Trucks and BusesTextFill" class="st1 st2 st3" >
					<text transform="matrix(1 0 0 1 606.01 348.4591)" class="st4 st5">Trucks and Buses</text>
					<text id="Trucks and BusesValue" transform="matrix(1 0 0 1 606.01 376.4591)" >n/a</text>
				</g>
				<g id="Classic CarsTextFill" class="st1 st2 st3" >
					<text id="Classic CarsValue" transform="matrix(1 0 0 1 46.4 262.1091)" >n/a</text>
					<text transform="matrix(1 0 0 1 46.4 234.1091)" class="st4 st5">Classic Cars</text>
				</g>
				<g id="Vintage CarsTextFill" class="st1 st2 st3">
					<text id="Vintage CarsValue" transform="matrix(1 0 0 1 247.59 169.7191)" >n/a</text>
					<text transform="matrix(1 0 0 1 247.59 141.7191)" class="st4 st5">Vintage Cars</text>
				</g>
				<g id="PlanesTextFill" class="st1 st2 st3">
					<text id="PlanesValue" transform="matrix(1 0 0 1 547.78 138.2692)" >n/a</text>
					<text transform="matrix(1 0 0 1 547.78 110.2692)" class="st4 st5">Planes</text>
				</g>
			</g>
		</g>
	</g>
</g>
</svg>
